ffmpeg started on 2016-12-05 at 05:20:23
Report written to "Output/x264/results/ffmpeg/sintelveryfast9000k.log"
Command line:
Tools/ffmpeg/ffmpeg -benchmark -y -i Input/y4m/sintel.y4m -c:v libx264 -preset veryfast -b:v 9000k -an Output/x264/encoded/sintelveryfast9000k.mkv
ffmpeg version N-82227-gdb23fde Copyright (c) 2000-2016 the FFmpeg developers
  built with gcc 5.4.0 (Ubuntu 5.4.0-6ubuntu1~16.04.2) 20160609
  configuration: --prefix=/home/jaroslav/ffmpeg_build --pkg-config-flags=--static --extra-cflags=-I/home/jaroslav/ffmpeg_build/include --extra-ldflags=-L/home/jaroslav/ffmpeg_build/lib --bindir=/home/jaroslav/bin --enable-gpl --enable-libass --enable-libfdk-aac --enable-libfreetype --enable-libmp3lame --enable-libopus --enable-libtheora --enable-libvorbis --enable-libvpx --enable-libx264 --enable-libx265 --enable-nvenc --enable-libmfx --enable-libxvid --enable-libgsm --enable-libopencore-amrnb --enable-version3 --enable-nonfree
  libavutil      55. 35.100 / 55. 35.100
  libavcodec     57. 66.101 / 57. 66.101
  libavformat    57. 57.100 / 57. 57.100
  libavdevice    57.  2.100 / 57.  2.100
  libavfilter     6. 66.100 /  6. 66.100
  libswscale      4.  3.100 /  4.  3.100
  libswresample   2.  4.100 /  2.  4.100
  libpostproc    54.  2.100 / 54.  2.100
Input #0, yuv4mpegpipe, from 'Input/y4m/sintel.y4m':
  Duration: 00:00:20.83, start: 0.000000, bitrate: 2057307 kb/s
    Stream #0:0: Video: rawvideo (I420 / 0x30323449), yuv420p(progressive), 4096x1744, SAR 1:1 DAR 256:109, 24 fps, 24 tbr, 24 tbn, 24 tbc
[libx264 @ 0x29b21c0] using SAR=1/1
[libx264 @ 0x29b21c0] using cpu capabilities: MMX2 SSE2Fast SSSE3 SSE4.2 AVX FMA3 AVX2 LZCNT BMI2
[libx264 @ 0x29b21c0] profile High, level 5.1
[libx264 @ 0x29b21c0] 264 - core 148 - H.264/MPEG-4 AVC codec - Copyleft 2003-2016 - http://www.videolan.org/x264.html - options: cabac=1 ref=1 deblock=1:0:0 analyse=0x3:0x113 me=hex subme=2 psy=1 psy_rd=1.00:0.00 mixed_ref=0 me_range=16 chroma_me=1 trellis=0 8x8dct=1 cqm=0 deadzone=21,11 fast_pskip=1 chroma_qp_offset=0 threads=6 lookahead_threads=2 sliced_threads=0 nr=0 decimate=1 interlaced=0 bluray_compat=0 constrained_intra=0 bframes=3 b_pyramid=2 b_adapt=1 b_bias=0 direct=1 weightb=1 open_gop=0 weightp=1 keyint=250 keyint_min=24 scenecut=40 intra_refresh=0 rc_lookahead=10 rc=abr mbtree=1 bitrate=9000 ratetol=1.0 qcomp=0.60 qpmin=0 qpmax=69 qpstep=4 ip_ratio=1.40 aq=1:1.00
Output #0, matroska, to 'Output/x264/encoded/sintelveryfast9000k.mkv':
  Metadata:
    encoder         : Lavf57.57.100
    Stream #0:0: Video: h264 (libx264) (H264 / 0x34363248), yuv420p, 4096x1744 [SAR 1:1 DAR 256:109], q=-1--1, 9000 kb/s, 24 fps, 1k tbn, 24 tbc
    Metadata:
      encoder         : Lavc57.66.101 libx264
    Side data:
      cpb: bitrate max/min/avg: 0/0/9000000 buffer size: 0 vbv_delay: -1
Stream mapping:
  Stream #0:0 -> #0:0 (rawvideo (native) -> h264 (libx264))
Press [q] to stop, [?] for help
frame=   12 fps=0.0 q=0.0 size=       0kB time=00:00:00.00 bitrate=N/A speed=   0x    frame=   19 fps= 18 q=0.0 size=       0kB time=00:00:00.00 bitrate=N/A speed=   0x    frame=   25 fps= 15 q=30.0 size=       1kB time=00:00:00.08 bitrate=  69.8kbits/s speed=0.0499x    frame=   34 fps= 15 q=42.0 size=       1kB time=00:00:00.45 bitrate=  12.8kbits/s speed=0.206x    frame=   45 fps= 16 q=41.0 size=       1kB time=00:00:00.91 bitrate=   6.4kbits/s speed=0.325x    frame=   58 fps= 17 q=40.0 size=       1kB time=00:00:01.45 bitrate=   4.0kbits/s speed=0.434x    frame=   69 fps= 18 q=39.0 size=       1kB time=00:00:01.91 bitrate=   3.1kbits/s speed=0.495x    frame=   78 fps= 18 q=38.0 size=       1kB time=00:00:02.29 bitrate=   2.6kbits/s speed=0.523x    frame=   85 fps= 11 q=38.0 size=       1kB time=00:00:02.58 bitrate=   2.3kbits/s speed=0.33x    frame=   86 fps=8.1 q=38.0 size=       1kB time=00:00:02.62 bitrate=   2.2kbits/s speed=0.247x    frame=   96 fps=8.6 q=38.0 size=       1kB time=00:00:03.04 bitrate=   1.9kbits/s speed=0.272x    frame=  106 fps=9.1 q=37.0 size=       1kB time=00:00:03.45 bitrate=   1.7kbits/s speed=0.296x    frame=  115 fps=9.4 q=35.0 size=       1kB time=00:00:03.83 bitrate=   1.5kbits/s speed=0.314x    frame=  127 fps= 10 q=37.0 size=    4907kB time=00:00:04.33 bitrate=9274.8kbits/s speed=0.341x    frame=  139 fps= 10 q=36.0 size=    4907kB time=00:00:04.83 bitrate=8315.5kbits/s speed=0.364x    frame=  150 fps= 11 q=36.0 size=    4907kB time=00:00:05.29 bitrate=7594.4kbits/s speed=0.384x    frame=  161 fps= 11 q=36.0 size=    4907kB time=00:00:05.75 bitrate=6989.6kbits/s speed=0.401x    frame=  171 fps= 11 q=36.0 size=    4907kB time=00:00:06.16 bitrate=6517.0kbits/s speed=0.415x    frame=  183 fps= 12 q=35.0 size=    7117kB time=00:00:06.66 bitrate=8743.1kbits/s speed=0.434x    frame=  195 fps= 12 q=35.0 size=    7117kB time=00:00:07.16 bitrate=8133.2kbits/s speed=0.451x    frame=  204 fps= 12 q=35.0 size=    8071kB time=00:00:07.54 bitrate=8765.6kbits/s speed=0.459x    frame=  215 fps= 13 q=34.0 size=    8071kB time=00:00:08.00 bitrate=8263.9kbits/s speed=0.473x    frame=  225 fps= 13 q=34.0 size=    8071kB time=00:00:08.41 bitrate=7854.5kbits/s speed=0.483x    frame=  237 fps= 13 q=34.0 size=    8071kB time=00:00:08.91 bitrate=7414.1kbits/s speed=0.497x    frame=  248 fps= 13 q=34.0 size=    8071kB time=00:00:09.37 bitrate=7052.0kbits/s speed=0.507x    frame=  259 fps= 14 q=34.0 size=    8071kB time=00:00:09.83 bitrate=6723.5kbits/s speed=0.518x    frame=  270 fps= 14 q=34.0 size=    8071kB time=00:00:10.29 bitrate=6423.7kbits/s speed=0.528x    frame=  278 fps= 14 q=33.0 size=    8071kB time=00:00:10.62 bitrate=6222.4kbits/s speed=0.531x    frame=  294 fps= 14 q=33.0 size=   11029kB time=00:00:11.29 bitrate=8000.2kbits/s speed=0.55x    frame=  306 fps= 15 q=33.0 size=   11029kB time=00:00:11.79 bitrate=7661.0kbits/s speed=0.561x    frame=  320 fps= 15 q=32.0 size=   11029kB time=00:00:12.37 bitrate=7300.1kbits/s speed=0.574x    frame=  336 fps= 15 q=32.0 size=   11029kB time=00:00:13.04 bitrate=6926.8kbits/s speed=0.591x    frame=  352 fps= 16 q=31.0 size=   11029kB time=00:00:13.70 bitrate=6590.3kbits/s speed=0.607x    frame=  367 fps= 16 q=30.0 size=   11029kB time=00:00:14.33 bitrate=6303.0kbits/s speed=0.621x    frame=  380 fps= 16 q=30.0 size=   11029kB time=00:00:14.87 bitrate=6073.3kbits/s speed=0.63x    frame=  391 fps= 16 q=29.0 size=   13629kB time=00:00:15.33 bitrate=7281.0kbits/s speed=0.635x    frame=  404 fps= 16 q=29.0 size=   13629kB time=00:00:15.87 bitrate=7032.4kbits/s speed=0.643x    frame=  414 fps= 16 q=29.0 size=   13629kB time=00:00:16.29 bitrate=6852.4kbits/s speed=0.644x    frame=  427 fps= 16 q=30.0 size=   13629kB time=00:00:16.83 bitrate=6632.2kbits/s speed=0.65x    frame=  441 fps= 17 q=30.0 size=   16285kB time=00:00:17.41 bitrate=7658.9kbits/s speed=0.66x    frame=  454 fps= 17 q=30.0 size=   16285kB time=00:00:17.95 bitrate=7428.2kbits/s speed=0.666x    frame=  468 fps= 17 q=30.0 size=   16285kB time=00:00:18.54 bitrate=7194.3kbits/s speed=0.675x    frame=  480 fps= 17 q=29.0 size=   16285kB time=00:00:19.04 bitrate=7005.4kbits/s speed=0.68x    frame=  492 fps= 17 q=30.0 size=   16285kB time=00:00:19.54 bitrate=6826.1kbits/s speed=0.686x    frame=  500 fps= 17 q=-1.0 Lsize=   19951kB time=00:00:20.70 bitrate=7892.3kbits/s speed=0.709x    
video:19947kB audio:0kB subtitle:0kB other streams:0kB global headers:0kB muxing overhead: 0.024191%
bench: utime=79.552s
bench: maxrss=929792kB
[libx264 @ 0x29b21c0] frame I:8     Avg QP:24.69  size:145036
[libx264 @ 0x29b21c0] frame P:284   Avg QP:29.77  size: 49651
[libx264 @ 0x29b21c0] frame B:208   Avg QP:27.52  size: 24824
[libx264 @ 0x29b21c0] consecutive B-frames: 41.2%  8.0%  6.0% 44.8%
[libx264 @ 0x29b21c0] mb I  I16..4: 34.1% 57.3%  8.6%
[libx264 @ 0x29b21c0] mb P  I16..4: 18.4% 20.9%  0.3%  P16..4: 14.1%  5.4%  1.4%  0.0%  0.0%    skip:39.4%
[libx264 @ 0x29b21c0] mb B  I16..4:  2.9%  2.2%  0.1%  B16..8: 11.9%  3.3%  0.3%  direct: 2.9%  skip:76.4%  L0:41.3% L1:49.1% BI: 9.6%
[libx264 @ 0x29b21c0] final ratefactor: 26.91
[libx264 @ 0x29b21c0] 8x8 transform intra:52.2% inter:59.4%
[libx264 @ 0x29b21c0] coded y,uvDC,uvAC intra: 18.6% 16.0% 1.1% inter: 3.6% 5.2% 0.0%
[libx264 @ 0x29b21c0] i16 v,h,dc,p: 46% 27% 14% 13%
[libx264 @ 0x29b21c0] i8 v,h,dc,ddl,ddr,vr,hd,vl,hu: 19% 26% 39%  3%  2%  2%  3%  2%  3%
[libx264 @ 0x29b21c0] i4 v,h,dc,ddl,ddr,vr,hd,vl,hu: 18% 25% 12%  8%  7%  6%  9%  5%  9%
[libx264 @ 0x29b21c0] i8c dc,h,v,p: 71% 14% 14%  1%
[libx264 @ 0x29b21c0] Weighted P-Frames: Y:0.4% UV:0.0%
[libx264 @ 0x29b21c0] kb/s:7843.04
